<svg width="96" height="58" viewBox="0 0 96 58" fill="none" xmlns="http://www.w3.org/2000/svg">
<path d="M0 19.9C0 16.5863 2.68629 13.9 6 13.9H59.767C62.0407 13.9 64.1191 15.1852 65.1349 17.2194L81.1651 49.3194C83.1572 53.3086 80.2562 58 75.7972 58H6C2.68629 58 0 55.3137 0 52V19.9Z" fill="#FF5EDA"/>
<path d="M13.9 6C13.9 2.6863 16.5863 0 19.9 0H73.667C75.9407 0 78.0191 1.28521 79.0349 3.31937L95.0651 35.4194C97.0572 39.4086 94.1562 44.1 89.6972 44.1H19.9C16.5863 44.1 13.9 41.4137 13.9 38.1V6Z" fill="#31B8EC"/>
<path fill-rule="evenodd" clip-rule="evenodd" d="M78.5586 44.1H19.9C16.5863 44.1 13.9 41.4137 13.9 38.1V13.9H59.767C62.0407 13.9 64.1191 15.1852 65.1349 17.2194L78.5586 44.1Z" fill="white"/>
</svg>
