<svg width="417" height="208" viewBox="0 0 417 208" fill="none" xmlns="http://www.w3.org/2000/svg">
<g clip-path="url(#clip0_75_105)">
<rect width="414.813" height="207.296" rx="16" transform="matrix(1 0 0.0058996 0.999983 0.237305 0.539795)" fill="#1A1919"/>
<rect opacity="0.05" width="414.813" height="50.2906" transform="matrix(1 0 0.0058996 0.999983 1.16357 157.542)" fill="#FAFAFA"/>
<rect opacity="0.1" width="79.3735" height="103.035" transform="matrix(1 0 0.0058996 0.999983 335.879 34.884)" fill="#FAFAFA"/>
<rect opacity="0.15" width="79.3735" height="103.035" transform="matrix(1 0 0.0058996 0.999983 256.506 34.884)" fill="#FAFAFA"/>
<rect opacity="0.2" width="158.747" height="15.9458" transform="matrix(1 0 0.0058996 0.999983 256.411 18.9385)" fill="#FAFAFA"/>
<rect opacity="0.25" width="256.066" height="118.98" transform="matrix(1 0 0.0058996 0.999983 0.345825 18.9385)" fill="#FAFAFA"/>
</g>
<defs>
<clipPath id="clip0_75_105">
<rect width="414.813" height="207.296" rx="16" transform="matrix(1 0 0.0058996 0.999983 0.237305 0.539795)" fill="white"/>
</clipPath>
</defs>
</svg>
