<svg width="417" height="208" viewBox="0 0 417 208" fill="none" xmlns="http://www.w3.org/2000/svg">
<rect width="41.1104" height="30.8693" rx="8" transform="matrix(1 -7.56014e-05 8.9516e-05 1 346 99.0046)" fill="#31B8EC"/>
<rect width="78.7114" height="9.67544" rx="4.83772" transform="matrix(1 -7.56014e-05 8.9516e-05 1 11 164.169)" fill="#31B8EC"/>
<rect width="58.6576" height="9.67544" rx="4.83772" transform="matrix(1 -7.56014e-05 8.9516e-05 1 11.0012 177.531)" fill="#31B8EC"/>
<rect width="111.8" height="9.67544" rx="4.83772" transform="matrix(1 -7.56014e-05 8.9516e-05 1 11.0026 190.892)" fill="#31B8EC"/>
<rect width="14.0377" height="30.8693" rx="7.01885" transform="matrix(1 -7.56014e-05 8.9516e-05 1 392.124 99.001)" fill="#31B8EC"/>
<rect width="36.097" height="7.37176" rx="3.68588" transform="matrix(1 -7.56014e-05 8.9516e-05 1 369 189.003)" fill="#31B8EC"/>
<rect width="36.5983" height="13.3613" rx="6.68066" transform="matrix(1 -7.56014e-05 8.9516e-05 1 209 27.0027)" fill="#31B8EC"/>
</svg>
