<?xml version="1.0" standalone="no"?>
<!DOCTYPE svg PUBLIC "-//W3C//DTD SVG 20010904//EN"
 "http://www.w3.org/TR/2001/REC-SVG-20010904/DTD/svg10.dtd">
<svg version="1.0" xmlns="http://www.w3.org/2000/svg"
 width="1536.000000pt" height="1536.000000pt" viewBox="0 0 1536.000000 1536.000000"
 preserveAspectRatio="xMidYMid meet">
<metadata>
Created by potrace 1.14, written by Peter Selinger 2001-2017
</metadata>
<g transform="translate(0.000000,1536.000000) scale(0.100000,-0.100000)"
fill="#000000" stroke="none">
<path d="M3045 12306 c-216 -34 -403 -132 -553 -290 -114 -120 -186 -248 -234
-411 -22 -80 -23 -84 -26 -792 l-3 -713 3698 0 c4060 0 3789 4 3964 -60 207
-75 381 -219 494 -406 20 -33 519 -1028 1110 -2211 l1074 -2153 943 0 c880 0
949 2 1033 19 316 65 575 283 695 585 48 120 63 204 63 351 0 154 -17 239 -73
371 -66 155 -2609 5235 -2656 5305 -59 89 -202 223 -300 280 -43 26 -119 61
-169 79 -184 64 146 60 -4630 59 -3426 -1 -4367 -4 -4430 -13z"/>
<path d="M771 10075 c-193 -42 -355 -129 -489 -264 -122 -121 -201 -260 -250
-437 l-27 -99 -3 -2655 c-2 -1872 0 -2680 8 -2739 56 -430 393 -770 824 -830
55 -8 1725 -11 5714 -11 6124 0 5720 -4 5887 53 309 106 538 355 622 676 31
118 35 312 10 427 -25 111 -61 192 -287 643 l-210 421 -4762 2 -4763 3 -100
28 c-344 94 -598 348 -692 692 l-28 100 -3 2003 -2 2002 -693 -1 c-550 0 -705
-3 -756 -14z"/>
</g>
</svg>
